<svg id="Capa_1" enable-background="new 0 0 504.501 504.501" height="512" viewBox="0 0 504.501 504.501" width="512" xmlns="http://www.w3.org/2000/svg"><g><g><g><path d="m398.347 38.913h-292.193c-7.465 0-11.574 8.677-6.843 14.452l126.312 154.203c5.681 6.935 8.785 15.623 8.785 24.588v249.456h35.686v-249.457c0-8.965 3.104-17.653 8.785-24.588l126.311-154.202c4.731-5.775.622-14.452-6.843-14.452z" fill="#d3effd"/></g></g><g><g><path d="m398.347 38.913h-30c7.465 0 11.574 8.677 6.843 14.451l-126.312 154.204c-2.843 3.471-5.041 7.381-6.527 11.545h30c1.486-4.164 3.684-8.074 6.527-11.545l126.312-154.203c4.731-5.775.622-14.452-6.843-14.452z" fill="#b2e5fb"/></g></g><g><g><path d="m288.311 77.127c-1.37 0-2.757-.376-4-1.162-3.501-2.213-4.545-6.846-2.332-10.347l39.277-62.124c2.213-3.501 6.846-4.546 10.347-2.332 3.501 2.213 4.545 6.846 2.332 10.347l-39.277 62.124c-1.427 2.258-3.86 3.494-6.347 3.494z" fill="#7f78bd"/></g></g><g><g><path d="m231.837 218.267c1.687 4.401 2.571 9.105 2.571 13.888v249.456h35.686v-249.456c0-4.783.884-9.487 2.571-13.888 1.475-3.848-20.413-17.079-20.413-17.079s-21.89 13.231-20.415 17.079z" fill="#d3effd"/></g></g><g><g><path d="m129.596 90.337s100.758 124.086 102.233 127.934h10.843 1c.788-2.055 58.897-38.41 85.851-71.839 23.512-29.16 15.383-56.095 15.383-56.095z" fill="#f9c8dc"/></g></g><g><g><path d="m344.906 90.337-96.027 117.231c-2.65 3.235-4.731 6.855-6.206 10.703h30c1.475-3.848 102.233-127.934 102.233-127.934z" fill="#faafd1"/></g></g><g><g><path d="m305.288 504.501h-106.075c-3.477 0-6.295-2.818-6.295-6.295v-3.292c0-13.323 10.8-24.123 24.123-24.123h70.42c13.323 0 24.123 10.8 24.123 24.123v3.292c-.001 3.477-2.819 6.295-6.296 6.295z" fill="#75cff9"/></g></g><g><g><ellipse cx="273.924" cy="93.509" fill="#cdafeb" rx="27.798" ry="27.798" transform="matrix(.707 -.707 .707 .707 14.109 221.082)"/></g></g><g><g><path d="m301.518 90.19c-1.642-13.786-13.366-24.479-27.594-24.479s-25.952 10.692-27.594 24.479z" fill="#ddc9f1"/></g></g><g><g><ellipse cx="257" cy="139.158" fill="#ad7fdd" rx="27.798" ry="27.798" transform="matrix(.233 -.973 .973 .233 61.899 356.757)"/></g></g></g></svg>